<svg width="210" height="465" viewBox="0 0 210 465" fill="none" xmlns="http://www.w3.org/2000/svg">
<g clip-path="url(#clip0_1_3)">
<path d="M300.403 434.978L299.984 430.475H298.65V427.285H297.704V408.246L166.429 347.975V335.164H167.313V319.81H160.643V265.049H165.653L168.631 256.195L254.798 247.666L277.647 245.772C277.647 245.772 280.889 246.25 280.889 240.791V136.08C280.889 136.08 280.672 126.356 286.054 126.356L292.523 125.639V119.481H294.896V116.871C294.896 114.355 293.987 111.943 292.37 110.164C290.753 108.385 288.559 107.386 286.272 107.386H276.965C274.677 107.386 272.484 108.385 270.866 110.164C269.249 111.943 268.34 114.355 268.34 116.871V119.481H270.496V222.213C270.496 222.213 271.784 233.267 264.292 234.462H254.798V231.374L252.906 229.207C254.246 228.506 255.442 227.51 256.418 226.28C257.395 225.051 258.131 223.614 258.583 222.059C258.915 221.997 259.232 221.859 259.512 221.652C259.792 221.446 260.029 221.177 260.208 220.863C260.387 220.549 260.503 220.196 260.549 219.829C260.595 219.462 260.57 219.089 260.476 218.733C260.476 218.733 248.702 35.3949 247.539 20.5361C246.376 5.67732 235.13 5.04613 235.13 5.04613L154.376 3.80078H153.244L72.459 5.08024C72.459 5.08024 61.2596 5.71144 60.0496 20.5702C58.8397 35.429 47.113 218.767 47.113 218.767C47.0185 219.123 46.9934 219.496 47.0396 219.863C47.0858 220.231 47.2021 220.583 47.3808 220.897C47.5595 221.211 47.7967 221.48 48.0767 221.686C48.3567 221.893 48.6731 222.031 49.0054 222.094C49.4553 223.652 50.1914 225.091 51.1679 226.324C52.1445 227.556 53.3408 228.555 54.6827 229.258L52.7902 231.408V234.496H43.2971C35.7584 233.302 37.0924 222.247 37.0924 222.247V119.481H39.2486V116.871C39.2364 114.379 38.333 111.992 36.7336 110.227C35.1343 108.461 32.9675 107.459 30.7016 107.437H21.3946C19.1073 107.437 16.9136 108.436 15.2962 110.215C13.6788 111.994 12.7702 114.406 12.7702 116.922V119.532H15.19V125.691L21.6583 126.407C27.0409 126.407 26.8237 136.131 26.8237 136.131V240.91C26.8237 246.369 30.0656 245.891 30.0656 245.891L52.9143 247.785L140.307 256.315L143.239 265.049H148.404V319.81H142.199V335.164H142.928V347.975L11.6533 408.195V427.148H10.5365V430.338H9.2025L8.79918 434.842C0.128163 438.254 1.64828 450.195 1.64828 450.195H5.15393C5.79475 452.456 7.07583 454.432 8.81016 455.836C10.5445 457.239 12.6413 457.996 14.7944 457.996C16.9476 457.996 19.0443 457.239 20.7787 455.836C22.513 454.432 23.7941 452.456 24.4349 450.195C25.4276 447.773 25.3036 441.802 25.3036 441.802L23.9851 430.389H22.9458V427.199H22.5115V420.563C22.7408 419.498 23.2351 418.523 23.9391 417.749C24.6432 416.975 25.5291 416.431 26.498 416.179C29.833 415.343 141.067 378.136 141.067 378.136H148.016V429.161H146.76V434.978H146.031C146.031 434.978 137.763 447.807 146.977 457.94H149.707V452.243H160.146V457.94H162.876C172.075 447.807 163.823 434.978 163.823 434.978H163.14V429.127H161.76V378.136H168.119C168.119 378.136 279.353 415.343 282.688 416.179C283.657 416.431 284.543 416.975 285.247 417.749C285.951 418.523 286.446 419.498 286.675 420.563V427.199H286.241V430.389H285.17L283.852 441.802C283.852 441.802 283.728 447.773 284.72 450.195C285.361 452.456 286.642 454.432 288.377 455.836C290.111 457.239 292.208 457.996 294.361 457.996C296.514 457.996 298.611 457.239 300.345 455.836C302.079 454.432 303.361 452.456 304.001 450.195H307.523C307.523 450.195 309.058 438.237 300.403 434.978ZM153.802 190.397C149.862 190.295 128.89 189.766 107.686 189.766C94.0667 189.766 83.1465 189.988 75.251 190.397C70.9537 190.542 66.7146 191.53 62.7332 193.314L65.7425 146.981C65.7425 146.981 61.5233 204.232 62.7332 204.232L244.98 193.314C244.98 193.314 75.2637 144.841 76.016 145.355C76.7683 145.869 77.349 146.637 77.671 147.544C79.1135 150.853 90.6076 176.152 90.6076 176.152C90.6076 176.152 91.6159 179.155 95.9281 179.786C99.8681 180.366 145.426 182.004 153.321 182.277H154.469C162.225 182.004 207.845 180.366 211.785 179.786C216.097 179.155 217.105 176.152 217.105 176.152C217.105 176.152 228.599 150.853 230.042 147.544C224.77 153.924 233.462 151.879 234.215 151.365C234.967 150.851 233.332 144.61 234.215 144.695L191.62 186.32C192.829 186.32 244.98 209.35 244.98 209.35V193.314C240.998 191.53 236.759 190.542 232.462 190.397C224.566 189.988 213.646 189.766 200.027 189.766C178.729 189.766 157.758 190.295 153.771 190.397H153.802Z" fill="white"/>
</g>
<defs>
<clipPath id="clip0_1_3">
<rect width="305" height="506" fill="white"/>
</clipPath>
</defs>
</svg>
