<svg width="120" height="121" viewBox="0 0 120 121" fill="none" xmlns="http://www.w3.org/2000/svg">
<path d="M62.2128 77.1753L75.6378 90.75L62.1753 104.325L67.5003 109.656L86.2503 90.75L67.5003 71.8438L62.2128 77.1753ZM88.4628 77.1753L101.888 90.75L88.4253 104.325L93.7503 109.656L112.5 90.75L93.7503 71.8438L88.4628 77.1753Z" fill="#4470E1"/>
<path d="M52.5 86.9688H15V29.9097L57.8625 59.8194C58.4902 60.2585 59.236 60.4938 60 60.4938C60.764 60.4938 61.5098 60.2585 62.1375 59.8194L105 29.9097V64.2812H112.5V26.4688C112.5 24.4631 111.71 22.5395 110.303 21.1213C108.897 19.703 106.989 18.9063 105 18.9062H15C13.0109 18.9063 11.1032 19.703 9.6967 21.1213C8.29018 22.5395 7.5 24.4631 7.5 26.4688V86.9688C7.5 88.9744 8.29018 90.898 9.6967 92.3162C11.1032 93.7345 13.0109 94.5312 15 94.5312H52.5V86.9688ZM96.75 26.4688L60 52.1056L23.25 26.4688H96.75Z" fill="#4470E1"/>
</svg>
