<svg width="267" height="284" viewBox="0 0 267 284" fill="none" xmlns="http://www.w3.org/2000/svg">
<path d="M55.0892 269.445C103.489 288.852 181.951 288.852 230.351 269.445C278.75 250.038 278.744 218.576 230.351 199.174C181.957 179.773 103.489 179.773 55.0892 199.174C6.68972 218.576 6.69579 250.043 55.0892 269.445Z" fill="#EDEDED"/>
<path d="M190.76 218.829L181.291 213.368C180.482 212.849 179.82 212.132 179.365 211.285L80.3609 3.22412C80.1947 2.8574 80.1692 2.44232 80.2894 2.05805C80.4096 1.67377 80.667 1.34719 81.0126 1.14055L82.4543 0.311072C82.8513 0.106657 83.2915 0 83.738 0C84.1846 0 84.6247 0.106657 85.0218 0.311072L94.4916 5.7718C95.2962 6.29722 95.9552 7.01728 96.4073 7.86524L195.411 215.926C195.581 216.291 195.609 216.706 195.49 217.091C195.372 217.476 195.115 217.803 194.77 218.01L193.318 218.839C192.922 219.042 192.483 219.147 192.038 219.145C191.593 219.143 191.155 219.035 190.76 218.829Z" fill="#263238"/>
<path d="M94.6201 7.16412L93.1784 8.00348C92.8319 8.20673 92.574 8.53215 92.4552 8.91585C92.3365 9.29954 92.3655 9.71377 92.5365 10.0772L191.541 218.197C191.618 218.371 191.731 218.525 191.874 218.651C192.016 218.777 192.183 218.872 192.364 218.928C192.546 218.984 192.737 219.001 192.925 218.977C193.114 218.953 193.295 218.889 193.456 218.79L194.908 217.96C195.252 217.752 195.507 217.425 195.625 217.041C195.744 216.657 195.717 216.242 195.55 215.877L96.5456 7.76648C96.4669 7.59306 96.3525 7.43821 96.2098 7.31206C96.0671 7.18591 95.8994 7.09131 95.7176 7.03445C95.5359 6.97759 95.3441 6.95974 95.155 6.98209C94.9659 7.00444 94.7836 7.06647 94.6201 7.16412Z" fill="#37474F"/>
<path d="M96.3086 7.6777C96.1182 7.38719 95.8233 7.18107 95.485 7.10202C95.1468 7.02297 94.7911 7.07707 94.4916 7.25309L93.04 8.09243C92.8503 8.20429 92.6857 8.35411 92.5566 8.53253C92.4274 8.71094 92.3365 8.91411 92.2896 9.12928L80.2523 2.21696C80.3015 2.00138 80.3943 1.79817 80.5251 1.61985C80.6559 1.44153 80.8218 1.29187 81.0126 1.18011L82.4543 0.350638C82.8514 0.146223 83.2915 0.0395813 83.738 0.0395813C84.1846 0.0395813 84.6247 0.146223 85.0218 0.350638L94.4916 5.81137C95.231 6.28758 95.8524 6.9258 96.3086 7.6777Z" fill="#455A64"/>
<path d="M193.624 133.887V133.957C193.629 133.934 193.629 133.91 193.624 133.887Z" fill="#263238"/>
<path d="M193.624 133.976V138.587C193.582 139.066 193.413 139.524 193.136 139.916C192.858 140.308 192.481 140.62 192.044 140.819C190.746 141.444 189.319 141.755 187.878 141.728C186.437 141.7 185.023 141.335 183.749 140.661L137.595 113.999C137.398 113.914 137.228 113.777 137.103 113.604C136.978 113.43 136.902 113.225 136.884 113.012V108.39C136.902 108.602 136.977 108.806 137.1 108.979C137.223 109.153 137.391 109.29 137.585 109.378L183.74 136.039C185.013 136.713 186.427 137.079 187.868 137.106C189.309 137.134 190.736 136.822 192.034 136.197C192.472 136.001 192.85 135.691 193.129 135.301C193.408 134.911 193.579 134.453 193.624 133.976Z" fill="#263238"/>
<path d="M192.044 136.237C190.746 136.862 189.319 137.173 187.878 137.146C186.437 137.118 185.023 136.753 183.749 136.079L137.595 109.417C137.386 109.35 137.203 109.218 137.074 109.041C136.944 108.863 136.874 108.649 136.874 108.43C136.874 108.21 136.944 107.996 137.074 107.818C137.203 107.641 137.386 107.509 137.595 107.442L142.197 104.786C142.726 104.518 143.311 104.378 143.905 104.378C144.498 104.378 145.084 104.518 145.613 104.786L191.778 131.448C192.285 131.671 192.724 132.025 193.049 132.475C193.374 132.925 193.572 133.453 193.624 134.005C193.582 134.484 193.413 134.942 193.136 135.335C192.858 135.727 192.481 136.038 192.044 136.237Z" fill="#37474F"/>
<path d="M110.084 166.621L112.385 165.298C112.906 164.957 113.29 164.443 113.471 163.847L130.544 94.8815C130.659 94.2641 130.569 93.6261 130.288 93.0646L127.266 87.8309C127.201 87.7178 127.115 87.6185 127.012 87.5388C126.909 87.4592 126.791 87.4007 126.665 87.3667C126.54 87.3327 126.409 87.324 126.279 87.341C126.15 87.3579 126.026 87.4003 125.913 87.4656L123.612 88.8382C123.089 89.1841 122.702 89.7005 122.516 90.2996L104.445 163.323C104.391 163.6 104.422 163.886 104.533 164.145C104.644 164.404 104.83 164.623 105.067 164.775L108.366 166.671C108.635 166.799 108.932 166.862 109.231 166.853C109.529 166.845 109.822 166.765 110.084 166.621Z" fill="#263238"/>
<path d="M130.564 93.9532L126.555 96.2837C126.521 95.966 126.427 95.6577 126.279 95.3752L123.257 90.1416C123.02 89.7367 122.743 89.717 122.585 90.0428C122.783 89.5362 123.127 89.0997 123.573 88.7887L125.874 87.4655C125.986 87.3998 126.11 87.3569 126.239 87.3392C126.367 87.3215 126.498 87.3294 126.624 87.3624C126.75 87.3955 126.867 87.453 126.971 87.5317C127.074 87.6104 127.161 87.7087 127.227 87.821L130.248 93.0645C130.411 93.337 130.518 93.6391 130.564 93.9532Z" fill="#455A64"/>
<path d="M123.247 90.1416L126.278 95.3752C126.561 95.9363 126.648 96.5759 126.525 97.1921L109.462 166.157C109.443 166.275 109.395 166.386 109.322 166.48C109.248 166.574 109.152 166.647 109.043 166.694C108.933 166.74 108.813 166.758 108.695 166.745C108.576 166.733 108.463 166.69 108.366 166.621L105.067 164.726C104.83 164.574 104.644 164.355 104.533 164.096C104.422 163.837 104.391 163.55 104.445 163.274L122.477 90.2502C122.654 89.717 122.98 89.6676 123.247 90.1416Z" fill="#37474F"/>
<path d="M203.143 156.776C191.126 157.023 109.817 158.751 97.8095 159.028C96.8435 159.084 95.9008 159.347 95.0446 159.798L93.593 160.627C92.882 161.042 92.882 161.704 93.593 162.109L114.231 174.027C115.086 174.474 116.032 174.717 116.996 174.738L199.134 172.981C200.1 172.92 201.042 172.658 201.899 172.21L203.341 171.371C203.715 171.128 204.027 170.801 204.25 170.414C204.473 170.028 204.601 169.595 204.625 169.149V158.218C204.625 158.025 204.586 157.835 204.511 157.657C204.436 157.479 204.327 157.319 204.188 157.184C204.05 157.05 203.887 156.945 203.707 156.874C203.528 156.804 203.336 156.771 203.143 156.776Z" fill="#455A64"/>
<path d="M200.615 171.47V160.539C200.617 160.345 200.579 160.153 200.505 159.975C200.431 159.796 200.321 159.634 200.183 159.499C200.045 159.363 199.881 159.257 199.7 159.186C199.52 159.115 199.328 159.082 199.134 159.087L93.8398 161.339C93.0202 161.339 92.9314 161.704 93.6423 162.109L114.281 174.028C115.135 174.474 116.081 174.717 117.045 174.739L199.184 172.981C199.57 172.958 199.933 172.789 200.199 172.509C200.465 172.228 200.614 171.857 200.615 171.47Z" fill="#263238"/>
<path d="M204.625 158.218V169.149C204.601 169.595 204.473 170.028 204.25 170.415C204.026 170.801 203.715 171.129 203.341 171.371L201.899 172.211C201.042 172.658 200.1 172.92 199.134 172.981C199.529 172.971 199.904 172.807 200.181 172.525C200.457 172.243 200.613 171.865 200.615 171.47V160.539C200.616 160.315 200.565 160.094 200.465 159.893C200.366 159.693 200.221 159.518 200.043 159.383L204.052 157.073C204.23 157.206 204.375 157.378 204.474 157.577C204.574 157.776 204.625 157.996 204.625 158.218Z" fill="#263238"/>
<path d="M195.905 168.043L192.706 169.89C192.909 169.743 193.07 169.546 193.172 169.317C193.275 169.088 193.315 168.836 193.288 168.586C193.247 167.895 193.047 167.222 192.705 166.619C192.362 166.016 191.886 165.5 191.313 165.111C191.131 164.982 190.921 164.895 190.701 164.858C190.481 164.82 190.255 164.832 190.04 164.893L193.101 163.126C193.327 163.018 193.579 162.973 193.829 162.995C194.079 163.018 194.319 163.107 194.523 163.254C195.1 163.639 195.579 164.154 195.922 164.758C196.265 165.361 196.462 166.037 196.498 166.73C196.529 166.982 196.491 167.238 196.386 167.47C196.281 167.702 196.115 167.9 195.905 168.043Z" fill="#455A64"/>
<path d="M193.298 168.596C193.257 167.905 193.057 167.232 192.715 166.629C192.372 166.026 191.896 165.51 191.323 165.121C191.141 164.992 190.931 164.905 190.711 164.868C190.491 164.83 190.265 164.842 190.049 164.903L189.783 165.051L116.917 207.118L119.741 212.055L192.745 169.92C192.946 169.767 193.102 169.565 193.199 169.332C193.296 169.1 193.331 168.846 193.298 168.596Z" fill="#4470E1"/>
<path opacity="0.1" d="M193.298 168.596C193.257 167.905 193.057 167.232 192.715 166.629C192.372 166.026 191.896 165.51 191.323 165.121C191.141 164.992 190.931 164.905 190.711 164.868C190.491 164.83 190.265 164.842 190.049 164.903L189.783 165.051L116.917 207.118L119.741 212.055L192.745 169.92C192.946 169.767 193.102 169.565 193.199 169.332C193.296 169.1 193.331 168.846 193.298 168.596Z" fill="black"/>
<path d="M118.29 207.276C118.868 207.658 119.348 208.171 119.691 208.773C120.034 209.375 120.231 210.05 120.265 210.742C120.265 212.025 119.366 212.539 118.29 211.907C117.712 211.522 117.233 211.007 116.89 210.403C116.547 209.8 116.35 209.124 116.315 208.431C116.285 207.147 117.184 206.634 118.29 207.276Z" fill="#E0E0E0"/>
<path d="M85.6142 11.8152C85.4314 11.6864 85.2222 11.6 85.0018 11.5624C84.7814 11.5249 84.5555 11.537 84.3403 11.5979L84.0737 11.746L11.208 53.8124L14.0322 58.7498L87.0361 16.6044C87.2421 16.4597 87.4057 16.2625 87.5098 16.0333C87.614 15.8042 87.655 15.5513 87.6286 15.301C87.5841 14.604 87.3791 13.9268 87.0297 13.3221C86.6803 12.7175 86.1958 12.2017 85.6142 11.8152Z" fill="#4470E1"/>
<path opacity="0.1" d="M85.6142 11.8152C85.4314 11.6864 85.2222 11.6 85.0018 11.5624C84.7814 11.5249 84.5555 11.537 84.3403 11.5979L84.0737 11.746L11.208 53.8124L14.0322 58.7498L87.0361 16.6044C87.2421 16.4597 87.4057 16.2625 87.5098 16.0333C87.614 15.8042 87.655 15.5513 87.6286 15.301C87.5841 14.604 87.3791 13.9268 87.0297 13.3221C86.6803 12.7175 86.1958 12.2017 85.6142 11.8152Z" fill="black"/>
<path d="M90.2257 14.7776L87.0263 16.6143C87.2297 16.47 87.3909 16.2741 87.4933 16.0467C87.5957 15.8193 87.6356 15.5687 87.6089 15.3208C87.5674 14.629 87.3677 13.9559 87.0254 13.3533C86.683 12.7507 86.207 12.2347 85.634 11.8448C85.4512 11.7161 85.242 11.6297 85.0216 11.5921C84.8012 11.5545 84.5752 11.5667 84.3601 11.6276L87.4213 9.86003C87.6481 9.75212 87.8997 9.7071 88.1498 9.72968C88.4 9.75226 88.6394 9.84161 88.8432 9.98839C89.4205 10.3738 89.8998 10.8888 90.2427 11.4923C90.5856 12.0958 90.7827 12.7711 90.8182 13.4643C90.8497 13.7165 90.8111 13.9726 90.7066 14.2043C90.602 14.436 90.4357 14.6344 90.2257 14.7776Z" fill="#455A64"/>
<path d="M119.771 205.498C92.5514 201.568 67.5044 188.418 48.8133 168.244C30.1221 148.07 18.9185 122.094 17.0736 94.6543L14.6147 58.4042L87.0559 16.5846L94.4817 49.2799C111.634 113.851 137.624 148.324 189.852 165.012L119.771 205.498Z" fill="#4470E1"/>
<path d="M193.269 104.223C188.913 102.712 184.175 102.712 179.819 104.223C177.973 104.983 177.064 105.981 177.074 106.988L178.516 129.404C178.605 130.223 179.365 131.033 180.826 131.655C184.516 132.979 188.552 132.979 192.242 131.655C193.743 131.033 194.532 130.223 194.621 129.404L196.073 106.968C196.112 105.971 195.164 104.983 193.269 104.223Z" fill="#4470E1"/>
<g opacity="0.1">
<path opacity="0.1" d="M193.269 104.223C188.913 102.712 184.175 102.712 179.819 104.223C176.166 105.734 176.166 108.173 179.819 109.703C184.175 111.214 188.913 111.214 193.269 109.703C197.051 108.193 197.051 105.734 193.269 104.223Z" fill="black"/>
</g>
<path d="M184.539 110.75C184.085 110.75 183.651 110.661 183.226 110.592L181.498 103.68L179.908 97.2712C179.828 96.9608 179.665 96.6785 179.435 96.4554C179.205 96.2324 178.917 96.0773 178.605 96.0072L173.746 95.0197C173.667 95.0044 173.592 94.9735 173.524 94.9289C173.457 94.8844 173.399 94.8269 173.354 94.7599C173.31 94.6929 173.278 94.6177 173.262 94.5386C173.247 94.4595 173.247 94.378 173.262 94.2989C173.298 94.14 173.394 94.0013 173.531 93.9127C173.668 93.8241 173.834 93.7925 173.993 93.8249L178.852 94.8124C179.392 94.9283 179.89 95.1932 180.287 95.5771C180.685 95.9611 180.968 96.4487 181.103 96.9848L182.713 103.423L184.539 110.75Z" fill="#E6E6E6"/>
<path d="M196.192 87.9198L192.686 104.006L191.323 110.306C190.889 110.405 190.444 110.493 189.99 110.572L191.501 103.66L194.987 87.6631L196.192 87.9198Z" fill="#E6E6E6"/>
<path d="M204.081 94.7631C204.081 94.7631 202.107 99.1376 193.614 97.1133C185.122 95.0889 185.102 90.6058 185.102 90.6058C185.635 88.1569 193.338 83.0812 196.577 83.8614C199.816 84.6415 204.615 92.324 204.081 94.7631Z" fill="#4470E1"/>
<path opacity="0.1" d="M196.537 97.5872C198.157 97.7823 199.801 97.5964 201.336 97.044C201.01 94.2001 199.895 87.4162 196.626 83.8613C197.223 88.4192 197.193 93.0374 196.537 97.5872Z" fill="black"/>
<path opacity="0.1" d="M186.03 92.9163C187.145 94.3262 188.624 95.4051 190.306 96.0367C191.372 91.5473 193.51 87.383 196.537 83.9007C192.469 85.1252 187.65 90.971 186.03 92.9163Z" fill="black"/>
<path d="M92.0922 71.2711C99.7945 69.0394 105.275 69.2961 112.671 81.837C118.448 91.6328 132.816 111.402 132.816 111.402C132.816 111.402 162.894 115.5 167.565 114.513C171.584 113.723 174.764 111.204 178.891 112.004C183.878 112.992 186.475 113.545 189.052 113.841C189.832 113.93 189.734 116.952 184.806 117.248C182.504 117.382 180.196 117.382 177.894 117.248L178.476 128.308C174.527 127.705 170.172 125.849 166.163 125.888C162.153 125.928 133.694 126.194 123.889 125.483C118.181 120.171 103.152 95.0988 103.152 95.0988L92.0922 71.2711Z" fill="#FFC691"/>
<path d="M153.335 215.768C152.466 216.844 151.479 218.089 151.706 219.323C152.268 221.958 153.651 224.347 155.656 226.146C158.52 228.763 160.692 234.046 161.492 237.67C162.292 241.294 163.408 250.656 168.404 253.944C173.401 257.232 184.836 258.141 184.263 251.297C183.69 244.454 167.97 219.313 167.97 219.313L153.335 215.768Z" fill="#263238"/>
<path d="M160.001 219.639C162.292 224.251 164.23 229.031 165.797 233.937C167.417 239.329 169.362 243.052 172.285 244.296C175.208 245.54 179.365 244.918 177.479 241.334C175.593 237.749 168.019 219.323 168.019 219.323L160.001 219.639Z" fill="#EF895D"/>
<path d="M120.837 129.206C120.837 129.206 139.046 137.59 150.343 142.478C161.64 147.366 172.393 152.185 174.931 156.687C177.627 161.437 178.032 173.257 177.805 184.682C177.578 196.107 176.817 216.676 176.817 216.676L141.16 171.904L107.586 153.577L120.837 129.206Z" fill="#455A64"/>
<path d="M116.779 151.049L117.579 148.6C117.579 148.6 136.844 157.665 143.559 161.082C150.274 164.498 157.493 168.754 161.235 175.746C164.978 182.737 177.094 210.702 177.094 210.702L151.42 172.615L116.779 151.049Z" fill="#37474F"/>
<path d="M182.515 251.969C181.656 252.65 181.962 254.931 182.199 256.551C182.436 258.17 181.409 260.501 184.036 262.831C186.662 265.162 190.741 265.083 194.325 268.292C197.91 271.501 203.489 277.535 212.574 277.238C221.658 276.942 227.514 272.508 228.492 269.546C229.469 266.583 227.425 264.51 221.135 262.713C214.45 260.817 212.544 260.244 212.544 260.244L182.515 251.969Z" fill="#263238"/>
<path d="M187.423 231.943C187.423 231.943 194.434 242.44 198.285 247.11C202.136 251.781 207.36 255.8 212.949 259.385C214.173 260.165 216.81 261.498 217.807 262.13C218.033 262.244 218.23 262.407 218.384 262.606C218.539 262.806 218.648 263.037 218.703 263.283C218.758 263.53 218.757 263.785 218.701 264.031C218.645 264.278 218.536 264.508 218.38 264.707C217.057 267.028 209.325 269.773 203.943 267.778C198.561 265.784 192.38 260.787 188.973 258.891C187.265 257.904 185.655 257.044 184.47 256.383C183.911 256.07 183.443 255.616 183.113 255.067C182.782 254.519 182.6 253.893 182.584 253.253C182.584 252.884 182.564 252.449 182.525 251.949C182.377 249.234 175.938 239.813 175.938 239.813L187.423 231.943Z" fill="#FFC691"/>
<path d="M67.8298 145.983C68.679 155.019 69.5579 160.025 74.989 167.866C80.4201 175.706 92.4277 179.952 106.46 183.389C118.072 186.233 135.146 190.242 138.493 190.676C141.841 191.111 142.68 192.819 143.934 198.576C145.188 204.333 149.859 213.003 159.576 222.72C169.875 233.009 175.929 239.833 175.929 239.833C178.437 239.885 180.911 239.246 183.08 237.985C185.248 236.723 187.028 234.889 188.223 232.683C188.223 232.683 160.988 179.942 156.307 173.307C151.627 166.671 116.808 151.019 116.808 151.019C116.808 151.019 121.193 138.37 120.867 129.206L67.8298 145.983Z" fill="#455A64"/>
<path d="M119.623 140.483C118.853 144.051 117.904 147.577 116.779 151.049L118.912 152.036C119.554 148.221 119.792 144.348 119.623 140.483Z" fill="#37474F"/>
<path d="M67.7015 76.8897L59.4067 79.3189C59.4067 79.3189 65.9141 86.0338 65.5488 99.7992C65.292 109.555 63.1986 110.553 58.5278 113.703C58.5278 125.997 68.2347 149.805 68.2347 149.805C68.2347 149.805 80.2819 154.999 100.752 147.297C118.744 140.513 121.578 129.522 121.578 129.522L109.728 123.726L106.48 113.989C106.48 113.989 114.508 105.931 110.854 95C107.2 84.0687 92.0921 71.2414 92.0921 71.2414L84.844 72.1301L67.7015 76.8897Z" fill="#FAFAFA"/>
<path d="M113.856 139.92C104.791 144.216 90.4825 144.295 84.4293 140.74C78.3761 137.185 72.5796 126.392 72.9153 119.075C73.2511 111.757 70.3479 99.5423 66.8917 92.4127L64.9859 92.0572C65.4367 94.6019 65.6253 97.1862 65.5488 99.7694C65.292 109.526 63.1986 110.523 58.5278 113.673C58.5278 125.967 68.2347 149.775 68.2347 149.775C68.2347 149.775 80.2819 154.999 100.752 147.297C105.502 145.588 109.931 143.094 113.856 139.92Z" fill="#F0F0F0"/>
<path d="M92.25 103.087C92.25 103.087 100.584 89.8255 94.5804 78.3017C92.0941 73.415 89.3039 68.6889 86.2264 64.1512" stroke="#E0E0E0" stroke-miterlimit="10"/>
<path d="M79.6893 55.9927L71.1362 56.8723C65.4238 57.4805 59.6921 55.9 55.1979 52.4772C50.7036 49.0543 47.8136 44.0686 47.1616 38.6133C46.7814 35.3699 47.0737 32.0867 48.0219 28.9513C48.9702 25.8159 50.5557 22.8896 52.688 20.3397C54.8203 17.7898 57.4576 15.6662 60.4492 14.0901C63.4408 12.5141 66.7282 11.5165 70.1234 11.1544C73.5186 10.7911 76.9553 11.0704 80.2375 11.9762C83.5196 12.8821 86.5828 14.3968 89.252 16.4338C91.9212 18.4708 94.1442 20.9902 95.794 23.8481C97.4438 26.7059 98.488 29.8463 98.8671 33.0898C99.503 38.5564 97.8398 44.0404 94.2433 48.3355C90.6468 52.6306 85.4116 55.3849 79.6893 55.9927Z" fill="#263238"/>
<path d="M63.8403 6.87778C68.4321 12.2793 64.66 16.7525 59.2486 21.3048C53.8372 25.857 48.8505 28.8985 44.2686 23.4871C39.6867 18.0757 41.1581 11.3412 46.5595 6.70004C51.961 2.05891 59.2782 1.41705 63.8403 6.87778Z" fill="#263238"/>
<path d="M51.5069 26.4001L46.1054 31.3375C45.7606 30.9992 45.4881 30.5944 45.3045 30.1476C45.1209 29.7008 45.0301 29.2213 45.0375 28.7383C45.0449 28.2553 45.1503 27.7789 45.3475 27.3379C45.5446 26.8969 45.8294 26.5006 46.1844 26.173C46.9309 25.52 47.9001 25.1793 48.891 25.2216C49.882 25.2639 50.8187 25.6859 51.5069 26.4001Z" fill="#263238"/>
<path d="M90.206 23.0823C93.3264 24.4845 97.7701 31.4462 99.1427 46.9298C100.308 60.0533 96.4271 63.7168 94.3929 64.9314C92.3587 66.146 88.2014 65.988 84.133 65.7708L84.844 72.1597C84.844 72.1597 92.5463 78.4895 92.5957 82.1332C92.6451 85.777 83.8269 88.4037 78.2675 85.4709C72.708 82.5381 67.7015 76.8897 67.7015 76.8897L65.6673 58.0784C65.6673 58.0784 63.5738 60.626 59.1895 57.5846C55.5852 55.0764 53.9262 50.3563 56.227 47.463C56.8227 46.7702 57.5745 46.2289 58.4205 45.8837C59.2664 45.5384 60.1823 45.3991 61.0926 45.4772C62.003 45.5553 62.8817 45.8486 63.6565 46.3329C64.4312 46.8173 65.0798 47.4787 65.5488 48.2629C65.5488 48.2629 71.9476 47.779 79.9067 42.1702C83.0032 40.0223 85.5497 37.1745 87.3392 33.858C89.1287 30.5414 90.1109 26.8496 90.206 23.0823Z" fill="#FFC691"/>
<path d="M84.133 65.7707C79.8572 65.6917 70.9206 64.171 69.1925 60.9025C69.9256 62.5759 71.1565 63.9827 72.7178 64.9314C75.5518 66.9063 84.4292 68.3974 84.4292 68.3974L84.133 65.7707Z" fill="#EF895D"/>
<path d="M62.5568 57.071C62.5568 57.071 63.6726 69.0886 65.4599 76.0009C69.1926 90.4477 79.3833 97.1427 92.2501 103.097C92.2501 103.097 97.1875 119.973 97.0097 126.016C96.832 132.06 82.9777 150.16 83.748 155.305" stroke="#E0E0E0" stroke-miterlimit="10"/>
<path d="M63.2282 53.052C63.2185 52.5797 63.0695 52.1207 62.8 51.7326C62.5305 51.3446 62.1524 51.0447 61.7132 50.8706C61.274 50.6966 60.7931 50.656 60.331 50.7541C59.8688 50.8522 59.4459 51.0846 59.1152 51.422C58.7845 51.7595 58.5608 52.1871 58.4722 52.6511C58.3835 53.1152 58.4338 53.5951 58.6168 54.0307C58.7998 54.4663 59.1073 54.8382 59.5008 55.0997C59.8942 55.3613 60.3562 55.5009 60.8286 55.501C61.0429 55.4979 61.2556 55.4647 61.4606 55.4022L61.9741 59.6977C61.9965 59.8864 62.0915 60.059 62.2389 60.1788C62.3864 60.2987 62.5748 60.3563 62.7641 60.3396C62.9473 60.3198 63.1163 60.2314 63.2372 60.0922C63.3581 59.953 63.4219 59.7733 63.4158 59.5891L63.2282 53.052Z" fill="#FAFAFA"/>
<path d="M27.5903 217.259L31.5994 214.939L51.655 133.887L47.6459 126.935L43.6367 129.255L23.5811 210.307L27.5903 217.259Z" fill="#263238"/>
<path d="M43.6367 129.255L47.6459 136.197L27.5903 217.259L23.5811 210.307L43.6367 129.255Z" fill="#37474F"/>
<path d="M122.378 203.385L17.0441 205.637C16.0787 205.697 15.1368 205.959 14.2792 206.407L12.8276 207.246C12.6706 207.295 12.5332 207.393 12.4357 207.525C12.3381 207.657 12.2855 207.817 12.2855 207.982C12.2855 208.146 12.3381 208.306 12.4357 208.439C12.5332 208.571 12.6706 208.669 12.8276 208.718L33.4658 220.636C34.319 221.087 35.2661 221.33 36.2308 221.347L118.369 219.59C119.336 219.538 120.279 219.275 121.134 218.819L122.576 217.99C122.949 217.747 123.26 217.419 123.483 217.033C123.706 216.647 123.835 216.213 123.859 215.768V204.847C123.861 204.653 123.823 204.46 123.749 204.281C123.675 204.102 123.565 203.939 123.427 203.803C123.289 203.667 123.125 203.56 122.945 203.488C122.765 203.416 122.572 203.381 122.378 203.385Z" fill="#455A64"/>
<path d="M119.85 218.089V207.157C119.851 206.964 119.814 206.772 119.739 206.593C119.665 206.415 119.556 206.253 119.417 206.117C119.279 205.982 119.115 205.875 118.935 205.805C118.755 205.734 118.562 205.7 118.369 205.706L13.025 207.957C12.2054 207.957 12.1165 208.322 12.8275 208.727L33.4657 220.646C34.3189 221.097 35.266 221.34 36.2307 221.357L118.369 219.599C118.764 219.592 119.141 219.429 119.418 219.147C119.695 218.864 119.85 218.484 119.85 218.089Z" fill="#263238"/>
<path d="M123.859 204.837V215.768C123.836 216.214 123.707 216.647 123.484 217.033C123.261 217.419 122.95 217.747 122.575 217.99L121.134 218.829C120.276 219.277 119.334 219.539 118.369 219.6C118.764 219.589 119.139 219.426 119.415 219.144C119.692 218.862 119.848 218.484 119.85 218.089V207.157C119.851 206.934 119.799 206.713 119.7 206.512C119.601 206.312 119.456 206.137 119.277 206.002L123.286 203.691C123.465 203.824 123.61 203.997 123.709 204.196C123.809 204.395 123.86 204.614 123.859 204.837Z" fill="#263238"/>
<path d="M110.538 265.152L101.078 259.671C100.252 259.162 99.5716 258.447 99.1031 257.597L0.148326 49.5367C-0.0187566 49.1711 -0.0456893 48.7568 0.0726486 48.3727C0.190986 47.9886 0.446339 47.6613 0.790178 47.4531L2.24177 46.6236C2.64019 46.4238 3.07977 46.3198 3.52549 46.3198C3.97121 46.3198 4.41077 46.4238 4.8092 46.6236L14.2692 52.0942C15.0976 52.6008 15.7786 53.3158 16.2442 54.1679L115.199 262.239C115.365 262.603 115.392 263.015 115.274 263.398C115.155 263.78 114.9 264.106 114.557 264.312L113.105 265.152C112.707 265.351 112.268 265.456 111.822 265.456C111.376 265.456 110.936 265.351 110.538 265.152Z" fill="#263238"/>
<path d="M14.2692 53.5754L12.8275 54.4049C12.4828 54.6098 12.2263 54.9352 12.1077 55.3183C11.9891 55.7014 12.0169 56.1148 12.1856 56.4786L111.19 264.549C111.267 264.722 111.381 264.877 111.523 265.003C111.664 265.129 111.831 265.224 112.012 265.281C112.193 265.338 112.384 265.356 112.573 265.333C112.761 265.311 112.943 265.249 113.106 265.152L114.557 264.312C114.9 264.106 115.155 263.78 115.274 263.398C115.392 263.015 115.365 262.603 115.199 262.239L16.1948 54.1679C16.1164 53.9942 16.0019 53.8392 15.8589 53.7132C15.716 53.5872 15.5479 53.493 15.3657 53.437C15.1836 53.3809 14.9916 53.3643 14.8026 53.3882C14.6135 53.412 14.4317 53.4759 14.2692 53.5754Z" fill="#37474F"/>
<path d="M16.096 53.9902C15.9056 53.6997 15.6107 53.4936 15.2725 53.4145C14.9342 53.3355 14.5785 53.3896 14.2791 53.5656L12.8275 54.405C12.6377 54.5168 12.4732 54.6666 12.344 54.8451C12.2149 55.0235 12.124 55.2266 12.077 55.4418L0.0495605 48.5295C0.0964078 48.313 0.187187 48.1083 0.316273 47.9283C0.445359 47.7483 0.610008 47.5966 0.800043 47.4828L2.24175 46.6533C2.63879 46.4489 3.07891 46.3422 3.52547 46.3422C3.97204 46.3422 4.41215 46.4489 4.80919 46.6533L14.2791 52.114C15.0196 52.593 15.641 53.2347 16.096 53.9902Z" fill="#455A64"/>
<path d="M113.412 180.199V180.269C113.417 180.246 113.417 180.222 113.412 180.199Z" fill="#263238"/>
<path d="M113.412 180.288V184.9C113.369 185.378 113.201 185.837 112.923 186.229C112.646 186.621 112.269 186.932 111.832 187.131C110.533 187.756 109.106 188.067 107.666 188.04C106.225 188.013 104.811 187.647 103.537 186.973L57.3824 160.311C57.1857 160.227 57.0157 160.09 56.8905 159.916C56.7653 159.742 56.6896 159.538 56.6714 159.324V154.703C56.6897 154.915 56.7644 155.118 56.8876 155.292C57.0109 155.465 57.1783 155.603 57.3726 155.69L103.527 182.352C104.801 183.026 106.215 183.391 107.656 183.419C109.096 183.446 110.523 183.135 111.822 182.51C112.26 182.313 112.637 182.004 112.917 181.613C113.196 181.223 113.367 180.766 113.412 180.288Z" fill="#263238"/>
<path d="M111.832 182.52C110.533 183.145 109.106 183.456 107.665 183.428C106.225 183.401 104.811 183.036 103.537 182.362L57.3823 155.7C57.1731 155.633 56.9905 155.501 56.861 155.324C56.7314 155.146 56.6616 154.932 56.6616 154.713C56.6616 154.493 56.7314 154.279 56.861 154.101C56.9905 153.924 57.1731 153.792 57.3823 153.725L61.984 151.069C62.5135 150.801 63.0987 150.661 63.6923 150.661C64.2858 150.661 64.8711 150.801 65.4006 151.069L111.614 177.711C112.122 177.934 112.561 178.288 112.886 178.738C113.211 179.188 113.409 179.716 113.461 180.268C113.417 180.756 113.243 181.222 112.956 181.618C112.669 182.015 112.281 182.326 111.832 182.52Z" fill="#37474F"/>
<path d="M137.437 175.094L137.328 175.025L110.015 159.225C109.805 159.118 109.573 159.062 109.338 159.062C109.103 159.062 108.871 159.118 108.662 159.225L95.1432 167.026L95.0444 167.096C94.8759 167.229 94.7376 167.396 94.6388 167.587C94.54 167.777 94.4831 167.987 94.4717 168.201V168.843C94.4838 169.078 94.5509 169.307 94.6675 169.511C94.7841 169.715 94.9471 169.889 95.1432 170.018L122.457 185.818C122.665 185.928 122.897 185.985 123.133 185.985C123.369 185.985 123.601 185.928 123.81 185.818L137.289 178.017C137.486 177.888 137.65 177.714 137.769 177.51C137.887 177.306 137.956 177.077 137.97 176.842V176.2C137.961 175.989 137.909 175.782 137.817 175.592C137.726 175.402 137.596 175.232 137.437 175.094Z" fill="#4470E1"/>
<path opacity="0.4" d="M137.289 175.805L123.81 183.636C123.6 183.743 123.369 183.799 123.133 183.799C122.898 183.799 122.666 183.743 122.457 183.636L95.1434 167.836C95.0632 167.807 94.9939 167.754 94.9449 167.684C94.8959 167.614 94.8696 167.531 94.8696 167.446C94.8696 167.361 94.8959 167.277 94.9449 167.208C94.9939 167.138 95.0632 167.085 95.1434 167.056L108.662 159.255C108.871 159.147 109.103 159.091 109.338 159.091C109.574 159.091 109.805 159.147 110.015 159.255L137.328 175.054C137.398 175.092 137.456 175.148 137.494 175.216C137.533 175.285 137.552 175.363 137.547 175.442C137.543 175.521 137.517 175.597 137.471 175.661C137.425 175.725 137.362 175.775 137.289 175.805Z" fill="white"/>
<path d="M105.334 164.39C105.041 164.536 104.718 164.612 104.391 164.612C104.064 164.612 103.741 164.536 103.448 164.39C103.335 164.349 103.238 164.275 103.169 164.177C103.1 164.079 103.063 163.962 103.063 163.842C103.063 163.722 103.1 163.605 103.169 163.507C103.238 163.409 103.335 163.334 103.448 163.294C103.741 163.148 104.064 163.072 104.391 163.072C104.718 163.072 105.041 163.148 105.334 163.294C105.447 163.334 105.544 163.409 105.613 163.507C105.682 163.605 105.719 163.722 105.719 163.842C105.719 163.962 105.682 164.079 105.613 164.177C105.544 164.275 105.447 164.349 105.334 164.39Z" fill="#4470E1"/>
<g opacity="0.1">
<path opacity="0.1" d="M95.1432 170.048C94.9458 169.919 94.7814 169.745 94.6631 169.541C94.5447 169.337 94.4758 169.108 94.4619 168.873V168.231C94.4751 168.016 94.5338 167.806 94.6343 167.615C94.7347 167.425 94.8746 167.258 95.0445 167.125C94.7779 167.342 94.8075 167.648 95.1432 167.836L122.477 183.636C122.683 183.745 122.914 183.799 123.148 183.794V186.006C122.914 186.007 122.682 185.95 122.477 185.838L95.1432 170.048Z" fill="black"/>
</g>
<path d="M121.124 181.493L133.665 174.255C133.892 174.126 133.892 173.909 133.615 173.751L112.138 161.348C112.019 161.293 111.889 161.264 111.758 161.264C111.626 161.264 111.496 161.293 111.377 161.348L98.8365 168.586C98.7897 168.606 98.7497 168.639 98.7216 168.681C98.6935 168.723 98.6785 168.773 98.6785 168.823C98.6785 168.874 98.6935 168.924 98.7216 168.966C98.7497 169.008 98.7897 169.041 98.8365 169.06L120.314 181.463C120.437 181.531 120.575 181.569 120.715 181.574C120.856 181.58 120.996 181.552 121.124 181.493Z" fill="white"/>
<path d="M129.715 179.528C129.642 179.567 129.56 179.587 129.478 179.587C129.395 179.587 129.314 179.567 129.241 179.528C129.102 179.459 129.102 179.33 129.241 179.251C129.315 179.217 129.396 179.199 129.478 179.199C129.56 179.199 129.64 179.217 129.715 179.251C129.843 179.33 129.843 179.459 129.715 179.528Z" fill="#4470E1"/>
<path d="M126.555 180.278C126.405 180.365 126.235 180.41 126.061 180.41C125.888 180.41 125.718 180.365 125.567 180.278C125.301 180.13 125.301 179.883 125.567 179.725C125.72 179.646 125.889 179.604 126.061 179.604C126.233 179.604 126.402 179.646 126.555 179.725C126.822 179.883 126.822 180.13 126.555 180.278Z" fill="#4470E1"/>
<path d="M127.236 179.32C127.058 179.222 127.068 179.044 127.236 178.935L130.376 177.128C130.479 177.077 130.592 177.05 130.707 177.05C130.822 177.05 130.935 177.077 131.038 177.128C131.216 177.237 131.206 177.405 131.038 177.513L127.888 179.33C127.786 179.38 127.674 179.405 127.561 179.403C127.448 179.402 127.336 179.373 127.236 179.32Z" fill="#4470E1"/>
<path d="M126.091 171.993L117.203 177.099C117.079 177.167 116.94 177.203 116.798 177.203C116.657 177.203 116.518 177.167 116.394 177.099L106.677 171.45C106.45 171.322 106.45 171.115 106.677 170.986L115.564 165.881C115.688 165.813 115.827 165.777 115.969 165.777C116.111 165.777 116.25 165.813 116.374 165.881L126.16 171.529C126.318 171.658 126.318 171.865 126.091 171.993Z" fill="#E0E0E0"/>
<path d="M111.822 171.411L115.702 173.662C115.848 173.742 116.017 173.766 116.179 173.729C116.341 173.693 116.484 173.599 116.581 173.465L119.336 169.614C119.534 169.337 119.425 169.179 119.099 169.258L111.881 170.966C111.555 171.045 111.525 171.243 111.822 171.411Z" fill="white"/>
<path d="M59.4067 79.3188C49.3739 81.748 44.9303 87.5642 47.6458 102.278C49.4529 112.083 56.3356 149.291 59.1104 152.876C61.194 155.552 82.3161 164.202 93.1684 170.443C96.0321 172.092 97.4639 173.85 99.3598 175.953C103.053 180.071 107.635 181.68 111.012 183.083C113.286 183.891 115.757 183.96 118.072 183.28L113.402 180.584C111.711 179.603 110.326 178.17 109.402 176.447C108.217 174.255 106.914 171.401 107.586 170.522C108.721 169.021 115.08 172.22 117.826 170.937C120.571 169.653 120.284 168.557 115.475 166.987C110.666 165.417 106.489 162.049 101.898 160.785C92.408 158.09 72.2734 142.31 72.2734 142.31L65.845 106.82C65.845 106.82 68.8074 97.7846 66.5658 91.366C63.7022 83.0909 59.4067 79.3188 59.4067 79.3188Z" fill="#FFC691"/>
</svg>
