<svg width="275" height="56" viewBox="0 0 275 56" fill="none" xmlns="http://www.w3.org/2000/svg">
<path d="M33.1302 35.2097V45H8.89913V35.2097H13.3592V11.3049H9.52462L8.35522 18.7564H0.713311V1.7321H41.4248V18.7564H33.8101L32.6407 11.3049H28.6702V35.2097H33.1302ZM65.2752 45H46.1025V36.8142H49.5563V11.74H46.1025V4.34286L62.6373 2.54796V20.1162C63.3443 18.8108 64.5772 17.6867 66.3358 16.744C68.1126 15.7831 70.0797 15.3026 72.2372 15.3026C75.3919 15.3026 77.776 16.2363 79.3896 18.1037C81.0032 19.953 81.81 22.5547 81.81 25.9088V36.8142H85.2638V45H68.7018V27.2414C68.7018 26.1536 68.3846 25.2561 67.75 24.5491C67.1336 23.842 66.4174 23.4884 65.6016 23.4884C64.6769 23.4884 63.9517 23.8057 63.4259 24.4403C62.9001 25.0748 62.6373 25.927 62.6373 26.9966V36.8142H65.2752V45ZM103.947 45.4895C100.575 45.4895 97.6468 44.864 95.163 43.613C92.661 42.3802 90.7392 40.6125 89.3976 38.3099C88.074 36.0074 87.4123 33.315 87.4123 30.2329C87.4123 27.187 88.065 24.54 89.3704 22.2918C90.6576 20.0618 92.4797 18.3394 94.8366 17.1247C97.1936 15.91 99.9584 15.3026 103.131 15.3026C106.05 15.3026 108.625 15.8737 110.855 17.0159C113.085 18.1763 114.807 19.817 116.022 21.9383C117.255 24.0595 117.871 26.5343 117.871 29.3626C117.871 30.3417 117.726 31.2663 117.436 32.1366H100.493C100.493 33.8408 101.137 35.2097 102.424 36.2431C103.711 37.2584 105.262 37.766 107.075 37.766C108.452 37.766 109.966 37.5303 111.616 37.0589C113.266 36.5694 114.925 35.817 116.593 34.8017L117.055 34.9649V42.2805C115.188 43.3501 113.266 44.1569 111.29 44.7009C109.332 45.2266 106.884 45.4895 103.947 45.4895ZM100.493 26.5615V27.3502H107.455V26.7791C107.455 25.4918 107.156 24.3859 106.558 23.4612C105.978 22.5185 105.107 22.0471 103.947 22.0471C102.986 22.0471 102.17 22.5275 101.5 23.4884C100.829 24.4312 100.493 25.4556 100.493 26.5615Z" fill="white"/>
<path d="M157.304 45.7887C155.818 45.7887 154.549 45.6799 153.497 45.4623C152.446 45.2448 151.467 44.8912 150.56 44.4017C149.672 43.9122 148.72 43.2776 147.705 42.498L146.753 45H137.969V31.7558H146.698C147.26 33.2788 148.122 34.3575 149.282 34.9921C150.46 35.6085 151.902 35.9167 153.606 35.9167C154.657 35.9167 155.555 35.7082 156.298 35.2912C157.042 34.8561 157.413 34.285 157.413 33.5779C157.413 32.6895 157.033 32.0278 156.271 31.5927C155.51 31.1394 154.44 30.7224 153.062 30.3417C151.303 29.8703 149.708 29.3717 148.276 28.8459C146.861 28.3201 145.592 27.7762 144.468 27.2142C142.22 26.0901 140.407 24.4947 139.029 22.4278C137.651 20.361 136.962 17.6142 136.962 14.1876C136.962 11.5587 137.533 9.23803 138.676 7.22557C139.8 5.23124 141.413 3.68111 143.516 2.57516C145.638 1.45108 148.131 0.889044 150.995 0.889044C154.494 0.889044 157.259 2.00406 159.29 4.23408L160.677 1.67771H168.482V14.6499H160.133C159.353 13.0182 158.492 11.8851 157.549 11.2505C156.606 10.6159 155.31 10.2987 153.66 10.2987C152.409 10.2987 151.439 10.5253 150.75 10.9785C150.061 11.4137 149.717 12.021 149.717 12.8006C149.717 13.6709 150.216 14.3326 151.213 14.7859C152.192 15.2573 153.588 15.6924 155.401 16.0913C158.574 16.8165 161.311 17.7321 163.614 18.838C165.862 19.944 167.657 21.5122 168.999 23.5428C170.358 25.5553 171.038 28.157 171.038 31.3479C171.038 34.0493 170.476 36.4969 169.352 38.6907C168.21 40.8844 166.587 42.6159 164.484 43.885C162.399 45.1541 160.006 45.7887 157.304 45.7887ZM194.861 55.7966H174.818V47.5564H178.327V24.2771H174.818V16.9887L191.353 15.3026V19.9258C192.278 18.6386 193.474 17.5508 194.943 16.6624C196.411 15.7559 198.134 15.3026 200.11 15.3026C202.703 15.3026 204.915 15.9734 206.746 17.3151C208.577 18.6567 209.946 20.4607 210.852 22.727C211.777 24.9932 212.239 27.5134 212.239 30.2873C212.239 33.0431 211.786 35.5904 210.879 37.9292C209.973 40.2317 208.595 42.072 206.746 43.4499C204.915 44.8096 202.685 45.4895 200.056 45.4895C198.225 45.4895 196.557 45.136 195.052 44.4289C193.565 43.7037 192.332 42.8153 191.353 41.7637V47.6108H194.861V55.7966ZM195.269 37.5485C196.901 37.5485 198.107 36.8958 198.886 35.5904C199.666 34.285 200.056 32.5717 200.056 30.4505C200.056 28.2748 199.63 26.5343 198.777 25.2289C197.925 23.9236 196.81 23.2709 195.432 23.2709C194.508 23.2709 193.674 23.5066 192.93 23.9779C192.187 24.4312 191.661 25.0295 191.353 25.7728V35.2097C192.169 36.7689 193.474 37.5485 195.269 37.5485ZM232.745 45.4895C229.445 45.4895 226.571 44.8822 224.124 43.6674C221.64 42.4708 219.709 40.7122 218.331 38.3915C216.953 36.0708 216.264 33.315 216.264 30.1241C216.264 26.9513 216.953 24.259 218.331 22.0471C219.709 19.817 221.64 18.14 224.124 17.0159C226.607 15.8737 229.481 15.3026 232.745 15.3026C236.099 15.3026 239.009 15.8828 241.474 17.0431C243.958 18.2035 245.88 19.8896 247.24 22.1015C248.599 24.2952 249.279 26.9694 249.279 30.1241C249.279 33.315 248.599 36.0708 247.24 38.3915C245.862 40.7122 243.922 42.4799 241.42 43.6946C238.936 44.8912 236.044 45.4895 232.745 45.4895ZM232.745 37.5485C233.941 37.5485 234.83 36.9592 235.41 35.7808C235.972 34.6385 236.253 32.753 236.253 30.1241C236.253 27.7128 235.972 25.9723 235.41 24.9026C234.866 23.8148 233.977 23.2709 232.745 23.2709C231.566 23.2709 230.696 23.8148 230.134 24.9026C229.572 25.9723 229.291 27.7128 229.291 30.1241C229.291 32.6986 229.581 34.5842 230.161 35.7808C230.741 36.9592 231.602 37.5485 232.745 37.5485ZM267.065 45.4895C260.085 45.4895 256.595 41.8544 256.595 34.5842V23.842H252.244V15.8737H256.595V9.64597L269.622 6.73606V15.8737H274.843V23.842H269.622V33.6323C269.622 34.4482 269.93 35.1281 270.546 35.672C271.163 36.2159 271.933 36.4878 272.858 36.4878C273.529 36.4878 274.19 36.4334 274.843 36.3247V43.885C272.45 44.9547 269.857 45.4895 267.065 45.4895Z" fill="#4470E1"/>
</svg>
