<svg width="216" height="72" viewBox="0 0 216 72" fill="none" xmlns="http://www.w3.org/2000/svg">
<g clip-path="url(#clip0_1_120)">
<path d="M215.307 55.9849L215.249 55.4052H215.064V54.9946H214.933V52.5443L196.737 44.7869V43.138H196.86V41.1619H195.935V34.1137H196.63L197.042 32.9742L208.986 31.8763L212.153 31.6326C212.153 31.6326 212.602 31.6941 212.602 30.9915V17.5144C212.602 17.5144 212.572 16.2629 213.318 16.2629L214.215 16.1707V15.378H214.544V15.0421C214.544 14.7183 214.418 14.4078 214.193 14.1789C213.969 13.9499 213.665 13.8213 213.348 13.8213H212.058C211.741 13.8213 211.437 13.9499 211.213 14.1789C210.989 14.4078 210.863 14.7183 210.863 15.0421V15.378H211.162V28.6004C211.162 28.6004 211.34 30.0232 210.302 30.1769H208.986V29.7795L208.723 29.5006C208.909 29.4103 209.075 29.2821 209.21 29.1239C209.346 28.9657 209.448 28.7808 209.51 28.5806C209.556 28.5726 209.6 28.5548 209.639 28.5282C209.678 28.5017 209.711 28.4671 209.736 28.4266C209.76 28.3862 209.776 28.3409 209.783 28.2936C209.789 28.2464 209.786 28.1983 209.773 28.1525C209.773 28.1525 208.141 4.55553 207.98 2.64309C207.818 0.73066 206.26 0.649421 206.26 0.649421L195.067 0.489136H194.91L183.712 0.653812C183.712 0.653812 182.16 0.735052 181.992 2.64749C181.825 4.55992 180.199 28.1569 180.199 28.1569C180.186 28.2027 180.183 28.2507 180.189 28.298C180.196 28.3452 180.212 28.3906 180.236 28.431C180.261 28.4715 180.294 28.5061 180.333 28.5326C180.372 28.5592 180.416 28.577 180.462 28.585C180.524 28.7856 180.626 28.9709 180.761 29.1295C180.897 29.2881 181.063 29.4167 181.249 29.5072L180.986 29.7839V30.1813H179.67C178.626 30.0276 178.81 28.6048 178.81 28.6048V15.378H179.109V15.0421C179.108 14.7213 178.982 14.4142 178.761 14.187C178.539 13.9597 178.239 13.8308 177.925 13.8279H176.635C176.318 13.8279 176.014 13.9565 175.789 14.1854C175.565 14.4144 175.439 14.7249 175.439 15.0487V15.3846H175.775V16.1773L176.671 16.2695C177.417 16.2695 177.387 17.521 177.387 17.521V31.0069C177.387 31.7095 177.836 31.648 177.836 31.648L181.003 31.8917L193.117 32.9896L193.523 34.1137H194.239V41.1619H193.379V43.138H193.48V44.7869L175.284 52.5377V54.9771H175.13V55.3877H174.945L174.889 55.9673C173.687 56.4065 173.898 57.9434 173.898 57.9434H174.384C174.472 58.2344 174.65 58.4888 174.89 58.6694C175.131 58.85 175.421 58.9474 175.72 58.9474C176.018 58.9474 176.309 58.85 176.549 58.6694C176.79 58.4888 176.967 58.2344 177.056 57.9434C177.194 57.6316 177.176 56.8632 177.176 56.8632L176.994 55.3942H176.85V54.9837H176.789V54.1295C176.821 53.9924 176.89 53.867 176.987 53.7673C177.085 53.6677 177.208 53.5977 177.342 53.5653C177.804 53.4577 193.222 48.6689 193.222 48.6689H194.185V55.2362H194.011V55.9849H193.91C193.91 55.9849 192.764 57.636 194.041 58.9403H194.419V58.2069H195.866V58.9403H196.245C197.52 57.636 196.376 55.9849 196.376 55.9849H196.281V55.2318H196.09V48.6689H196.972C196.972 48.6689 212.389 53.4577 212.851 53.5653C212.986 53.5977 213.109 53.6677 213.206 53.7673C213.304 53.867 213.372 53.9924 213.404 54.1295V54.9837H213.344V55.3942H213.195L213.013 56.8632C213.013 56.8632 212.996 57.6316 213.133 57.9434C213.222 58.2344 213.399 58.4888 213.64 58.6694C213.88 58.85 214.171 58.9474 214.469 58.9474C214.768 58.9474 215.058 58.85 215.299 58.6694C215.539 58.4888 215.717 58.2344 215.806 57.9434H216.294C216.294 57.9434 216.506 56.4043 215.307 55.9849ZM194.987 24.5055C194.441 24.4923 191.534 24.4242 188.595 24.4242C186.707 24.4242 185.194 24.4528 184.099 24.5055C183.504 24.5241 182.916 24.6512 182.364 24.8809L182.782 18.9175C182.782 18.9175 182.197 26.2862 182.364 26.2862L207.625 24.8809C207.625 24.8809 184.101 18.6421 184.205 18.7082C184.31 18.7743 184.39 18.8732 184.435 18.9899C184.635 19.4159 186.228 22.6721 186.228 22.6721C186.228 22.6721 186.368 23.0585 186.965 23.1397C187.512 23.2144 193.826 23.4252 194.92 23.4603H195.08C196.155 23.4252 202.478 23.2144 203.024 23.1397C203.621 23.0585 203.761 22.6721 203.761 22.6721C203.761 22.6721 205.354 19.4159 205.554 18.9899C204.824 19.8111 206.028 19.5479 206.133 19.4817C206.237 19.4156 206.01 18.6123 206.133 18.6232L200.229 23.9807C200.396 23.9807 207.625 26.9449 207.625 26.9449V24.8809C207.073 24.6512 206.485 24.5241 205.89 24.5055C204.795 24.4528 203.282 24.4242 201.394 24.4242C198.442 24.4242 195.535 24.4923 194.983 24.5055H194.987Z" fill="white"/>
</g>
<path d="M19.9871 46.8348V52.5681H5.79706V46.8348H8.40892V32.8358H6.16336L5.47854 37.1996H1.00334V27.2299H24.8445V37.1996H20.3853L19.7005 32.8358H17.3753V46.8348H19.9871ZM38.8116 52.5681H27.5838V47.7744H29.6064V33.0907H27.5838V28.7588L37.2668 27.7077V37.9959C37.6809 37.2314 38.4029 36.5731 39.4328 36.021C40.4733 35.4583 41.6252 35.177 42.8887 35.177C44.7361 35.177 46.1323 35.7238 47.0772 36.8173C48.0222 37.9003 48.4946 39.4239 48.4946 41.3881V47.7744H50.5172V52.5681H40.8183V42.1685C40.8183 41.5314 40.6325 41.0059 40.2609 40.5918C39.8999 40.1777 39.4805 39.9707 39.0028 39.9707C38.4613 39.9707 38.0366 40.1565 37.7287 40.5281C37.4208 40.8997 37.2668 41.3987 37.2668 42.0251V47.7744H38.8116V52.5681ZM61.4584 52.8548C59.4836 52.8548 57.7689 52.4885 56.3143 51.7559C54.8491 51.0339 53.7237 49.9988 52.938 48.6504C52.1629 47.302 51.7754 45.7253 51.7754 43.9203C51.7754 42.1366 52.1576 40.5865 52.9221 39.2699C53.6759 37.964 54.7429 36.9554 56.1232 36.244C57.5035 35.5326 59.1226 35.177 60.9806 35.177C62.69 35.177 64.1977 35.5114 65.5036 36.1803C66.8095 36.8598 67.8182 37.8207 68.5295 39.0629C69.2515 40.3051 69.6125 41.7544 69.6125 43.4107C69.6125 43.984 69.5276 44.5255 69.3577 45.0352H59.4358C59.4358 46.0332 59.8127 46.8348 60.5665 47.44C61.3204 48.0345 62.2282 48.3318 63.2899 48.3318C64.0968 48.3318 64.9834 48.1938 65.9495 47.9178C66.9157 47.6311 67.8872 47.1905 68.864 46.5959L69.1347 46.6915V50.9755C68.0411 51.602 66.9157 52.0744 65.7584 52.393C64.6118 52.7009 63.1784 52.8548 61.4584 52.8548ZM59.4358 41.7703V42.2322H63.5129V41.8977C63.5129 41.1439 63.3377 40.4962 62.9873 39.9548C62.6475 39.4027 62.1379 39.1266 61.4584 39.1266C60.8957 39.1266 60.4179 39.408 60.0251 39.9707C59.6322 40.5228 59.4358 41.1227 59.4358 41.7703Z" fill="white"/>
<path d="M92.7052 53.03C91.8346 53.03 91.0914 52.9663 90.4756 52.8389C89.8598 52.7115 89.2864 52.5044 88.7556 52.2178C88.2353 51.9311 87.6779 51.5595 87.0833 51.103L86.5259 52.5681H81.3818V44.8122H86.4941C86.8232 45.704 87.3275 46.3358 88.007 46.7074C88.6972 47.0684 89.5412 47.2489 90.5393 47.2489C91.1551 47.2489 91.6806 47.1268 92.1159 46.8826C92.5512 46.6278 92.7689 46.2933 92.7689 45.8792C92.7689 45.359 92.5459 44.9714 92.1 44.7166C91.6541 44.4512 91.0277 44.207 90.2207 43.984C89.1909 43.708 88.2565 43.416 87.4178 43.1081C86.5896 42.8002 85.8464 42.4817 85.1881 42.1525C83.8716 41.4943 82.8098 40.5599 82.0029 39.3496C81.196 38.1392 80.7926 36.5307 80.7926 34.524C80.7926 32.9845 81.127 31.6255 81.7959 30.4469C82.4542 29.279 83.3991 28.3713 84.6307 27.7236C85.8729 27.0653 87.3328 26.7362 89.0104 26.7362C91.0595 26.7362 92.6787 27.3892 93.8678 28.6951L94.68 27.198H99.2508V34.7947H94.3615C93.905 33.8392 93.4006 33.1756 92.8485 32.804C92.2964 32.4324 91.5373 32.2466 90.5711 32.2466C89.8385 32.2466 89.2705 32.3793 88.867 32.6447C88.4636 32.8995 88.2618 33.2552 88.2618 33.7118C88.2618 34.2214 88.5538 34.6089 89.1378 34.8744C89.7111 35.1504 90.5286 35.4052 91.5904 35.6388C93.4484 36.0635 95.0516 36.5997 96.4 37.2473C97.7166 37.895 98.7677 38.8134 99.5534 40.0025C100.35 41.1811 100.748 42.7046 100.748 44.5733C100.748 46.1553 100.419 47.5886 99.7604 48.8733C99.0915 50.158 98.1413 51.172 96.9097 51.9152C95.6887 52.6584 94.2872 53.03 92.7052 53.03ZM114.699 58.8908H102.962V54.0652H105.016V40.4325H102.962V36.1644L112.645 35.177V37.8844C113.186 37.1306 113.887 36.4935 114.747 35.9733C115.607 35.4424 116.615 35.177 117.773 35.177C119.291 35.177 120.586 35.5698 121.659 36.3555C122.731 37.1412 123.533 38.1976 124.063 39.5248C124.605 40.8519 124.876 42.3277 124.876 43.9522C124.876 45.566 124.61 47.0578 124.079 48.4274C123.549 49.7758 122.742 50.8534 121.659 51.6604C120.586 52.4567 119.28 52.8548 117.741 52.8548C116.669 52.8548 115.692 52.6478 114.81 52.2337C113.94 51.809 113.218 51.2888 112.645 50.673V54.097H114.699V58.8908ZM114.938 48.2044C115.893 48.2044 116.6 47.8222 117.056 47.0578C117.513 46.2933 117.741 45.29 117.741 44.0477C117.741 42.7737 117.491 41.7544 116.992 40.9899C116.493 40.2255 115.84 39.8433 115.033 39.8433C114.492 39.8433 114.004 39.9813 113.568 40.2574C113.133 40.5228 112.825 40.8732 112.645 41.3085V46.8348C113.122 47.7479 113.887 48.2044 114.938 48.2044ZM136.884 52.8548C134.952 52.8548 133.269 52.4991 131.835 51.7878C130.381 51.087 129.25 50.0571 128.443 48.6981C127.636 47.3391 127.233 45.7253 127.233 43.8566C127.233 41.9986 127.636 40.4219 128.443 39.1266C129.25 37.8207 130.381 36.8386 131.835 36.1803C133.29 35.5114 134.973 35.177 136.884 35.177C138.848 35.177 140.552 35.5167 141.996 36.1962C143.451 36.8757 144.576 37.8631 145.372 39.1585C146.169 40.4432 146.567 42.0092 146.567 43.8566C146.567 45.7253 146.169 47.3391 145.372 48.6981C144.566 50.0571 143.429 51.0923 141.964 51.8037C140.51 52.5044 138.816 52.8548 136.884 52.8548ZM136.884 48.2044C137.585 48.2044 138.105 47.8594 138.445 47.1692C138.774 46.5003 138.938 45.3961 138.938 43.8566C138.938 42.4445 138.774 41.4253 138.445 40.7988C138.126 40.1618 137.606 39.8433 136.884 39.8433C136.194 39.8433 135.684 40.1618 135.355 40.7988C135.026 41.4253 134.861 42.4445 134.861 43.8566C134.861 45.3643 135.031 46.4685 135.371 47.1692C135.711 47.8594 136.215 48.2044 136.884 48.2044ZM156.983 52.8548C152.895 52.8548 150.851 50.726 150.851 46.4685V40.1777H148.303V35.5114H150.851V31.8644L158.48 30.1603V35.5114H161.537V40.1777H158.48V45.9111C158.48 46.3889 158.66 46.787 159.021 47.1055C159.382 47.4241 159.833 47.5833 160.375 47.5833C160.768 47.5833 161.155 47.5515 161.537 47.4878V51.9152C160.136 52.5416 158.618 52.8548 156.983 52.8548Z" fill="#4470E1"/>
<defs>
<clipPath id="clip0_1_120">
<rect width="42.2747" height="65.1259" fill="white" transform="translate(173.669)"/>
</clipPath>
</defs>
</svg>
